<svg width="48" height="48" viewBox="0 0 48 48" fill="none" xmlns="http://www.w3.org/2000/svg">
<rect width="48" height="48" fill="#0C4D3D"/>
<path fill-rule="evenodd" clip-rule="evenodd" d="M33.4379 17.4461C33.734 18.2319 33.8912 19.0633 33.9024 19.9031C33.9642 20.9593 33.9645 21.3047 33.9667 23.9783L33.9667 24.0155C33.9667 26.7242 33.9523 27.0624 33.9046 28.1291C33.888 28.9595 33.7317 29.7778 33.4401 30.5539C33.1829 31.2166 32.7905 31.8185 32.2879 32.3211C31.7852 32.8238 31.1834 33.2162 30.5207 33.4733C29.7449 33.7645 28.9253 33.9216 28.0969 33.9379C27.038 34 26.691 34 23.9834 34C21.2758 34 20.9376 33.9856 19.8698 33.9379C19.0398 33.9106 18.2205 33.7419 17.4472 33.439C16.7842 33.1824 16.182 32.7903 15.6792 32.2878C15.1763 31.7853 14.7838 31.1835 14.5267 30.5207C14.2351 29.7434 14.0787 28.9252 14.0621 28.0958C14 27.0358 14 26.6899 14 23.9823C14 21.2746 14.0144 20.9365 14.0621 19.8687C14.0778 19.0406 14.2349 18.2212 14.5267 17.4461C14.7833 16.7831 15.1756 16.181 15.6783 15.6783C16.181 15.1756 16.7831 14.7833 17.4461 14.5267C18.2215 14.2356 19.0406 14.0781 19.8687 14.061C20.9276 14 21.2746 14 23.9823 14C26.6899 14 27.0281 14.0133 28.0947 14.061C28.9231 14.078 29.7427 14.2355 30.5185 14.5267C31.1813 14.7835 31.7834 15.1758 32.286 15.6785C32.7887 16.1812 33.181 16.7832 33.4379 17.4461ZM18.8498 23.9767C18.8498 26.8085 21.1438 29.1026 23.9756 29.1026C25.3351 29.1026 26.6388 28.5625 27.6001 27.6012C28.5614 26.64 29.1015 25.3362 29.1015 23.9767C29.1015 22.6173 28.5614 21.3135 27.6001 20.3522C26.6388 19.3909 25.3351 18.8509 23.9756 18.8509C21.1438 18.8509 18.8498 21.1449 18.8498 23.9767ZM28.1102 18.6613C28.1102 19.3221 28.6435 19.8565 29.3055 19.8565C29.9652 19.8565 30.4996 19.3221 30.4996 18.6613C30.4996 18.5044 30.4687 18.349 30.4087 18.2041C30.3486 18.0591 30.2606 17.9274 30.1497 17.8165C30.0388 17.7056 29.9071 17.6176 29.7621 17.5575C29.6172 17.4975 29.4618 17.4666 29.3049 17.4666C29.148 17.4666 28.9927 17.4975 28.8477 17.5575C28.7028 17.6176 28.5711 17.7056 28.4601 17.8165C28.3492 17.9274 28.2612 18.0591 28.2012 18.2041C28.1411 18.349 28.1102 18.5044 28.1102 18.6613ZM26.8356 23.9818C26.8356 25.558 25.5579 26.8357 23.9817 26.8357C22.4055 26.8357 21.1277 25.558 21.1277 23.9818C21.1277 22.4056 22.4055 21.1278 23.9817 21.1278C25.5579 21.1278 26.8356 22.4056 26.8356 23.9818Z" fill="white"/>
</svg>
