<?xml version="1.0" encoding="utf-8"?><svg xmlns="http://www.w3.org/2000/svg" xmlns:xlink="http://www.w3.org/1999/xlink"><symbol viewBox="0 0 13 12" id="i-date" xmlns="http://www.w3.org/2000/svg"><path fill-rule="evenodd" clip-rule="evenodd" d="M3.511.667h1.422v1.422h2.845V.667H9.2v1.422h2.845v9.244H.666V2.09H3.51V.667zm6.4 4.266H7.067v1.423H9.91V4.933zm-7.111 0h2.844v1.423H2.8V4.933zm0 2.134h2.844v1.422H2.8V7.067zm4.267 0H9.91v1.422H7.067V7.067z"/></symbol><symbol viewBox="0 0 10 11" id="i-delete" xmlns="http://www.w3.org/2000/svg"><g clip-path="url(#bclip0)"><path fill-rule="evenodd" clip-rule="evenodd" d="M6.186 5.357l3.56-3.634a.849.849 0 000-1.211.808.808 0 00-1.187 0L5 4.146 1.44.512a.808.808 0 00-1.186 0 .849.849 0 000 1.211l3.56 3.634-3.56 3.634a.849.849 0 000 1.212.808.808 0 001.187 0L5 6.568l3.56 3.635a.808.808 0 001.186 0 .849.849 0 000-1.212l-3.56-3.634z"/></g><defs><clipPath id="bclip0"><path transform="translate(0 .252)" d="M0 0h10v10.21H0z"/></clipPath></defs></symbol><symbol viewBox="0 0 10 13" id="i-location" xmlns="http://www.w3.org/2000/svg"><path d="M1.553 2.51C3.243.136 6.77.127 8.476 2.493a4.257 4.257 0 01.251 4.583l-3.004 5.313a.825.825 0 01-1.44-.003L1.306 7.053a4.255 4.255 0 01.248-4.542z"/></symbol></svg>