<svg width="16" height="16" viewBox="0 0 16 16" fill="none" xmlns="http://www.w3.org/2000/svg">
<circle cx="8" cy="4" r="4" fill="#222A28"/>
<path fill-rule="evenodd" clip-rule="evenodd" d="M0.17494 13.1633C0.245278 12.972 0.39822 12.7369 0.576101 12.5092C0.766855 12.2649 1.00153 12.01 1.23587 11.7962C1.31426 11.7247 1.39448 11.6561 1.4746 11.5933C2.49116 10.6608 5.0295 10 8 10C10.9793 10 13.5238 10.6647 14.5344 11.6015C15.0793 11.9865 15.4712 12.43 15.6935 12.8422C15.7667 12.978 15.8234 13.1138 15.8601 13.2457C15.9504 13.4721 16 13.7192 16 13.9778V13.9778V15.9555H0V13.9778V13.9778C0 13.6874 0.0625616 13.4117 0.17494 13.1633Z" fill="#222A28"/>
</svg>
