<svg width="157" height="48" viewBox="0 0 157 48" fill="none" xmlns="http://www.w3.org/2000/svg">
<path d="M16.5494 8L0 35.141L5.6268 34.1481L18.2044 13.2958L16.5494 8Z" fill="#222A28"/>
<path d="M21.1832 8L37.7327 35.141L32.1059 34.1481L19.5283 13.2958L21.1832 8Z" fill="#222A28"/>
<path d="M3.23046 39.6482L35.0172 40L31.2877 35.6713L6.93636 35.5189L3.23046 39.6482Z" fill="#222A28"/>
<path d="M43.2807 13.796H59.8047L62.1087 20.744L58.2927 22.04L56.8887 17.828H50.8407V22.328H56.2407V26.36H50.8047V30.968H55.4487V35H43.2807V30.968H46.2327L46.2687 17.828H43.2807V13.796ZM63.1094 18.656H70.6694V31.364H73.6574V35H63.1094V31.364H66.0974V22.292H63.1094V18.656ZM68.0054 10.808C68.7734 10.808 69.3974 11.048 69.8774 11.528C70.3574 12.008 70.5974 12.632 70.5974 13.4C70.5974 14.168 70.3574 14.792 69.8774 15.272C69.3974 15.728 68.7734 15.956 68.0054 15.956C67.2374 15.956 66.6134 15.728 66.1334 15.272C65.6774 14.792 65.4494 14.168 65.4494 13.4C65.4494 12.632 65.6774 12.008 66.1334 11.528C66.6134 11.048 67.2374 10.808 68.0054 10.808ZM83.246 35.72C81.326 35.72 79.826 35.168 78.746 34.064C77.69 32.936 77.162 31.244 77.162 28.988V22.292H74.174V18.656H77.162V15.74L81.554 14.336V18.656H85.874V22.292H81.554V27.98C81.554 30.644 82.346 31.976 83.93 31.976C84.578 31.976 85.358 31.736 86.27 31.256L87.134 34.64C86.558 34.928 85.934 35.18 85.262 35.396C84.59 35.612 83.918 35.72 83.246 35.72ZM95.1769 13.796H106.517V17.828H102.953V30.968H108.281L109.541 27.44L113.357 28.772L111.197 35H95.1769V30.968H98.3809V17.828H95.1769V13.796ZM114.056 18.656H121.616V31.364H124.604V35H114.056V31.364H117.044V22.292H114.056V18.656ZM118.952 10.808C119.72 10.808 120.344 11.048 120.824 11.528C121.304 12.008 121.544 12.632 121.544 13.4C121.544 14.168 121.304 14.792 120.824 15.272C120.344 15.728 119.72 15.956 118.952 15.956C118.184 15.956 117.56 15.728 117.08 15.272C116.624 14.792 116.396 14.168 116.396 13.4C116.396 12.632 116.624 12.008 117.08 11.528C117.56 11.048 118.184 10.808 118.952 10.808ZM128.793 17.36C128.793 12.728 131.061 10.412 135.597 10.412C137.805 10.412 139.533 10.916 140.781 11.924L139.269 15.092C138.093 14.468 137.073 14.156 136.209 14.156C135.273 14.156 134.529 14.396 133.977 14.876C133.449 15.356 133.185 16.16 133.185 17.288V18.656H137.649V22.292H133.185V31.364H136.425V35H125.769V31.364H128.793V22.292H125.769V18.656H128.793V17.36ZM154.053 32.984C152.949 33.92 151.797 34.604 150.597 35.036C149.421 35.492 148.257 35.72 147.105 35.72C145.233 35.72 143.601 35.348 142.209 34.604C140.817 33.836 139.737 32.792 138.969 31.472C138.225 30.128 137.853 28.604 137.853 26.9C137.853 25.1 138.213 23.528 138.933 22.184C139.653 20.84 140.649 19.796 141.921 19.052C143.193 18.308 144.669 17.936 146.349 17.936C148.101 17.936 149.613 18.284 150.885 18.98C152.181 19.676 153.177 20.648 153.873 21.896C154.593 23.12 154.953 24.572 154.953 26.252C154.953 26.564 154.929 26.924 154.881 27.332C154.857 27.74 154.809 28.124 154.737 28.484H142.209C142.329 29.732 142.857 30.656 143.793 31.256C144.753 31.856 145.857 32.156 147.105 32.156C148.113 32.156 149.085 31.988 150.021 31.652C150.957 31.316 151.809 30.848 152.577 30.248L154.053 32.984ZM150.417 25.46C150.417 24.332 150.069 23.42 149.373 22.724C148.677 22.004 147.717 21.644 146.493 21.644C145.389 21.644 144.429 22.004 143.613 22.724C142.797 23.42 142.365 24.332 142.317 25.46H150.417Z" fill="#222A28"/>
</svg>
