<svg width="116" height="24" viewBox="0 0 116 24" fill="none" xmlns="http://www.w3.org/2000/svg">
<path d="M12 17.27L18.18 21L16.54 13.97L22 9.24L14.81 8.62L12 2L9.19 8.62L2 9.24L7.45 13.97L5.82 21L12 17.27Z" fill="#198566"/>
<path d="M58 17.27L64.18 21L62.54 13.97L68 9.24L60.81 8.62L58 2L55.19 8.62L48 9.24L53.45 13.97L51.82 21L58 17.27Z" fill="#198566"/>
<path d="M35 17.27L41.18 21L39.54 13.97L45 9.24L37.81 8.62L35 2L32.19 8.62L25 9.24L30.45 13.97L28.82 21L35 17.27Z" fill="#198566"/>
<path d="M81 17.27L87.18 21L85.54 13.97L91 9.24L83.81 8.62L81 2L78.19 8.62L71 9.24L76.45 13.97L74.82 21L81 17.27Z" fill="#198566"/>
<path d="M104 17.27L110.18 21L108.54 13.97L114 9.24L106.81 8.62L104 2L101.19 8.62L94 9.24L99.45 13.97L97.82 21L104 17.27Z" fill="#198566"/>
</svg>
