<?xml version="1.0" standalone="no"?>
<!DOCTYPE svg PUBLIC "-//W3C//DTD SVG 20010904//EN"
 "http://www.w3.org/TR/2001/REC-SVG-20010904/DTD/svg10.dtd">
<svg version="1.0" xmlns="http://www.w3.org/2000/svg"
 width="608.000000pt" height="608.000000pt" viewBox="0 0 608.000000 608.000000"
 preserveAspectRatio="xMidYMid meet">
<metadata>
Created by potrace 1.14, written by Peter Selinger 2001-2017
</metadata>
<g transform="translate(0.000000,608.000000) scale(0.100000,-0.100000)"
fill="#000000" stroke="none">
<path d="M2640 5586 c0 -8 -4 -16 -8 -18 -6 -2 -63 -92 -117 -186 -6 -9 -53
-87 -105 -172 -52 -85 -99 -162 -105 -172 -92 -155 -190 -313 -197 -316 -5 -2
-8 -8 -8 -12 0 -11 -201 -343 -213 -351 -4 -3 -9 -13 -11 -21 -1 -9 -8 -23
-15 -32 -20 -24 -81 -127 -81 -137 0 -5 -4 -9 -10 -9 -5 0 -10 -4 -10 -9 0 -9
-58 -109 -70 -121 -3 -3 -11 -17 -19 -32 -8 -16 -18 -28 -23 -28 -4 0 -8 -7
-8 -15 0 -8 -20 -45 -44 -82 -41 -63 -214 -347 -247 -403 -8 -14 -16 -27 -19
-30 -3 -3 -12 -17 -20 -32 -8 -15 -51 -86 -95 -158 -44 -72 -84 -140 -90 -150
-5 -11 -13 -20 -17 -20 -5 0 -8 -6 -8 -13 0 -8 -13 -32 -29 -54 -16 -22 -39
-58 -50 -79 -12 -22 -31 -55 -44 -75 -19 -32 -404 -660 -428 -699 -5 -8 -36
-59 -69 -113 -33 -54 -60 -102 -60 -108 0 -5 -3 -9 -8 -9 -4 0 -16 -17 -27
-37 -22 -41 -34 -61 -198 -327 -59 -97 -112 -187 -119 -201 -6 -14 -15 -25
-20 -25 -4 0 -8 -5 -8 -11 0 -6 -10 -24 -21 -41 l-22 -30 44 7 c24 4 53 9 64
11 10 2 35 6 55 9 20 3 47 8 60 11 14 3 39 7 55 10 28 4 161 27 215 38 14 3
41 7 60 10 19 3 49 8 65 12 17 3 39 7 50 9 44 8 91 16 110 20 11 2 42 7 70 11
46 7 84 33 85 58 0 5 6 17 14 25 8 9 27 39 42 68 16 28 90 151 164 273 74 122
144 239 156 259 12 20 71 119 133 220 61 101 111 185 111 187 0 2 12 22 28 46
15 24 32 52 39 63 7 11 58 97 115 190 56 94 107 177 113 186 5 9 21 36 35 59
14 23 30 50 35 59 6 9 30 50 55 91 24 41 48 77 52 78 5 2 8 7 8 12 0 8 69 130
80 140 3 3 14 21 24 40 10 19 32 54 48 78 15 24 28 45 28 48 0 2 29 52 65 109
36 58 65 110 65 114 0 5 4 11 8 13 4 2 19 23 33 48 14 25 97 162 183 305 87
143 166 274 176 290 9 17 35 59 56 94 126 205 125 203 93 263 -7 12 -11 24
-10 26 2 2 -35 132 -46 162 -4 8 -7 17 -8 20 0 3 -4 14 -7 25 -4 11 -21 67
-38 125 -18 58 -34 112 -37 120 -7 16 -11 33 -16 53 -1 6 -5 17 -9 22 -5 8
-27 81 -33 105 -4 21 -39 120 -41 120 -2 0 -4 -6 -4 -14z"/>
<path d="M3360 5513 c-13 -43 -24 -81 -25 -85 -2 -5 -3 -9 -5 -10 -1 -2 -3
-10 -5 -18 -3 -17 -115 -378 -165 -534 -35 -107 -34 -129 6 -181 13 -17 24
-35 24 -39 0 -3 12 -25 27 -49 15 -23 32 -51 38 -62 24 -43 40 -70 45 -75 8
-8 27 -40 51 -85 12 -22 25 -42 29 -45 4 -3 9 -10 11 -15 2 -6 54 -93 114
-193 61 -100 126 -208 145 -241 40 -69 247 -408 272 -449 10 -15 22 -36 28
-47 12 -23 15 -28 90 -150 30 -49 60 -98 65 -108 6 -10 53 -88 105 -175 52
-86 100 -164 105 -173 6 -10 25 -41 43 -71 18 -29 37 -60 42 -68 5 -8 30 -51
57 -95 62 -102 70 -116 83 -140 6 -11 24 -40 40 -65 16 -25 39 -64 51 -87 12
-24 27 -43 31 -43 5 0 7 -4 3 -9 -3 -5 -1 -12 5 -16 6 -3 19 -23 30 -43 12
-20 29 -50 40 -67 10 -16 25 -41 33 -55 22 -39 357 -594 362 -598 2 -3 24 -8
47 -13 41 -8 260 -47 303 -55 49 -8 82 -14 110 -19 36 -6 91 -16 125 -21 14
-2 36 -7 48 -10 13 -2 43 -7 65 -10 23 -3 58 -9 77 -14 19 -5 57 -11 83 -15
l49 -6 -30 43 c-46 66 -192 309 -192 319 0 5 -4 9 -9 9 -5 0 -11 8 -15 18 -3
9 -11 26 -18 37 -53 82 -65 102 -71 115 -4 8 -20 35 -36 60 -32 49 -91 146
-104 170 -4 8 -27 45 -50 82 -51 82 -164 267 -192 314 -17 29 -71 117 -280
459 -73 119 -230 377 -250 411 -113 189 -251 410 -259 416 -6 4 -7 8 -2 8 5 0
2 8 -6 18 -21 24 -158 253 -158 263 0 5 -4 9 -10 9 -5 0 -10 7 -10 15 0 8 -4
15 -9 15 -5 0 -11 8 -14 18 -6 17 -37 73 -47 82 -3 3 -41 65 -85 138 -44 73
-88 145 -97 160 -10 15 -21 34 -25 42 -3 8 -9 17 -12 20 -3 3 -12 16 -20 30
-8 14 -57 95 -109 180 -117 192 -119 195 -162 266 -19 32 -45 74 -57 94 -13
19 -32 51 -43 70 -11 19 -38 64 -60 99 -22 34 -40 65 -40 67 0 1 -13 23 -30
47 -16 25 -30 49 -30 55 0 6 -4 12 -8 14 -7 3 -56 80 -90 144 -7 13 -16 24
-21 24 -4 0 -18 -35 -31 -77z"/>
<path d="M1077 1161 c-18 -20 -95 -106 -171 -191 -77 -85 -171 -191 -210 -234
-39 -43 -79 -88 -89 -100 -10 -12 -34 -38 -53 -59 -19 -20 -33 -37 -32 -38 7
-3 560 -9 1913 -24 358 -3 866 -9 1815 -20 201 -2 588 -7 860 -10 l494 -5 -29
32 c-17 17 -34 37 -40 44 -5 6 -26 31 -45 54 -19 23 -42 50 -50 60 -33 39
-116 135 -135 156 -11 12 -37 42 -57 66 -21 25 -84 98 -140 163 l-103 118
-450 3 c-248 1 -913 5 -1480 9 -566 4 -1240 8 -1498 9 l-467 2 -33 -35z"/>
</g>
</svg>
